<svg width="296" height="172" viewBox="0 0 296 172" fill="none" xmlns="http://www.w3.org/2000/svg">
<g clip-path="url(#clip0_707_1250)">
<path d="M198.367 61.9889C193.706 79.3719 180.004 93.0444 162.59 97.688C159.598 98.4846 156.656 96.2454 156.656 93.1592V60.7616C156.656 58.1707 158.764 56.075 161.353 56.075H193.821C196.921 56.075 199.158 59.0104 198.359 61.9961L198.367 61.9889Z" fill="white"/>
<path d="M142.343 5.71305V92.1257C142.343 95.7574 138.855 98.3986 135.359 97.3866C114.234 91.2573 98.9282 71.7499 98.9282 48.9194C98.9282 26.0889 114.234 6.60301 135.359 0.459386C138.855 -0.559767 142.343 2.08142 142.343 5.72022V5.71305Z" fill="white"/>
<path d="M193.828 41.7781H161.36C158.764 41.7781 156.664 39.6752 156.664 37.0914V4.69383C156.664 1.60048 159.605 -0.63878 162.598 0.165058C180.011 4.81584 193.713 18.4883 198.367 35.8569C199.165 38.8426 196.921 41.7781 193.828 41.7781Z" fill="white"/>
<path d="M51.8735 171.045C49.6869 171.045 47.86 170.471 46.4214 169.337C42.0483 165.878 43.1775 158.32 44.8966 152.586C45.7166 149.672 46.853 146.78 47.9535 143.973C49.2913 140.571 50.55 137.356 51.3125 134.062C52.0029 131.112 52.5424 128.234 51.6937 125.399C51.3053 124.042 50.4421 123.038 49.2625 122.542C48.0614 122.04 46.6013 122.076 45.1411 122.643C40.7392 124.265 36.6034 128.148 33.7695 131.306C33.4602 131.65 33.3236 132.109 33.3739 132.569C34.1579 140.134 32.9064 148.459 30.6191 153.332C28.5836 157.667 24.1529 159.052 20.8227 158.184C17.622 157.344 14.9032 154.38 16.0324 149.65C17.1257 145.071 21.2759 139.588 24.6061 135.188C25.3685 134.184 26.0806 133.236 26.7063 132.375C26.9796 132.016 27.2745 131.636 27.591 131.234C27.9075 130.832 28.0298 130.351 27.9363 129.877C27.3393 126.834 26.3107 124.157 24.7715 122.291C22.923 120.282 21.0817 119.435 19.1181 119.7C15.2484 120.239 11.3212 124.889 9.58777 129.002L9.559 129.059C4.10695 140.916 5.2434 155.593 6.24318 168.541L6.27195 168.899C6.34387 169.833 5.6318 170.644 4.69675 170.694L3.02086 170.787C2.10739 170.837 1.32339 170.155 1.25866 169.244L1.22988 168.828C0.19414 155.428 -0.978266 140.248 4.87657 127.48C7.16384 122.076 12.2059 116.255 18.3269 115.408C20.9953 115.042 24.9657 115.473 28.7634 119.636L28.821 119.707C30.0581 121.179 31.0219 123.002 31.7556 125.054C31.9354 125.564 32.5899 125.729 32.9855 125.356C35.8842 122.636 39.3582 120.052 43.1272 118.66C45.9323 117.569 48.9101 117.554 51.4707 118.631C54.0169 119.7 55.8295 121.717 56.5847 124.322C57.6995 128.026 57.0378 131.586 56.261 134.916C55.4267 138.483 54.0601 141.978 52.7294 145.366C51.6649 148.079 50.5644 150.885 49.7876 153.641C47.9535 159.77 47.9751 164.658 49.8308 166.129C50.7946 166.897 52.528 166.775 54.1392 166.416C54.9376 166.237 55.7575 166.653 56.0668 167.414L56.4624 168.39C56.858 169.359 56.2754 170.443 55.254 170.665C54.0457 170.923 52.9236 171.053 51.8735 171.053V171.045ZM28.4829 140.105C28.5261 139.423 27.6486 139.1 27.2386 139.653C24.5269 143.299 21.7074 147.375 20.9522 150.533C20.5206 152.335 21.0385 153.705 22.2684 154.028C23.3761 154.316 24.9945 153.713 25.9367 151.703C27.2674 148.868 28.188 144.605 28.4757 140.112L28.4829 140.105Z" fill="white" stroke="white" stroke-miterlimit="10"/>
<path d="M218.035 171.641C216.582 171.641 215.165 171.376 213.856 170.83C210.353 169.373 208.152 166.122 207.965 162.146C207.67 155.88 210.784 149.88 213.791 144.074C214.798 142.129 215.754 140.291 216.538 138.504L217.071 137.306C219.106 132.763 221.638 127.107 220.063 122.865C219.214 120.576 217.862 120.353 217.423 120.282C215.157 119.908 211.417 121.602 209.08 124.057C203.153 130.286 201.06 138.339 198.837 146.866C197.399 152.406 195.903 158.134 193.256 163.28C191.968 165.785 189.156 170.105 184.833 170.844C183.272 171.11 180.899 171.002 178.41 168.971C175.368 166.481 176.022 161.607 177.108 157.961C178.137 154.509 179.618 151.179 181.05 147.957L181.726 146.428C184.524 140.098 188.012 132.217 187.128 125.492C186.797 122.973 185.639 122.305 183.884 122.054C182.057 121.789 179.949 122.923 177.626 125.413C176.856 126.246 176.144 127.136 175.526 127.983C175.145 128.499 174.44 128.657 173.864 128.356L171.908 127.315C171.203 126.942 170.994 126.03 171.469 125.392C172.124 124.516 172.872 123.583 173.699 122.693C177.238 118.889 180.942 117.231 184.704 117.77C187.71 118.2 191.443 119.808 192.127 125.004C193.148 132.777 189.422 141.21 186.423 147.978L185.739 149.514C184.358 152.622 182.934 155.83 181.978 159.038C180.848 162.835 181.129 165.21 181.87 165.813C182.985 166.725 183.632 166.61 183.841 166.581C185.258 166.337 187.228 164.256 188.645 161.514C191.091 156.763 192.465 151.495 193.918 145.911C196.169 137.263 198.499 128.327 205.181 121.301C208.137 118.193 213.525 115.222 218.358 116.018C220.516 116.377 223.393 117.626 224.853 121.545C226.968 127.251 224.076 133.696 221.76 138.877L221.235 140.062C220.394 141.964 219.416 143.858 218.373 145.861C215.603 151.208 212.734 156.734 212.978 161.981C213.093 164.363 214.201 166.165 216.028 166.926C217.603 167.579 219.552 167.392 221.487 166.423C222.026 166.151 222.688 166.273 223.077 166.739L224.335 168.225C224.875 168.864 224.695 169.854 223.947 170.22C222.019 171.167 219.984 171.655 218.02 171.655L218.035 171.641Z" fill="white" stroke="white" stroke-miterlimit="10"/>
<path d="M58.8647 159.153C58.8647 150.713 65.0504 143.126 74.3074 143.126C81.8022 143.126 87.0241 148.394 87.0241 155.701C87.0241 164.141 80.8959 171.727 71.6389 171.727C64.1442 171.727 58.8647 166.459 58.8647 159.153ZM81.8525 155.866C81.8525 151.107 78.4504 147.655 74.0772 147.655C68.3447 147.655 64.0866 152.981 64.0866 158.931C64.0866 163.746 67.4384 167.199 71.8619 167.199C77.5369 167.199 81.8525 161.873 81.8525 155.873V155.866Z" fill="white"/>
<path d="M93.0948 161.643L95.8784 148.445H94.0083C92.5914 148.445 91.793 147.878 91.793 146.916C91.793 146.292 92.0735 144.935 92.6992 144.368C93.0948 143.973 93.6055 143.801 94.6844 143.801H96.8422L97.2954 141.591C97.9787 138.246 99.223 136.947 101.611 136.947C102.862 136.947 103.826 137.456 103.769 137.629L102.46 143.801H108.25C109.724 143.801 110.523 144.311 110.523 145.215C110.523 145.897 110.185 147.196 109.616 147.82C109.221 148.215 108.71 148.445 107.631 148.445H101.446L98.6044 161.529C97.7557 165.605 99.0576 167.249 101.669 167.249C103.201 167.249 104.56 166.402 105.243 165.663C105.416 165.548 106.322 166.402 106.322 167.701C106.322 168.663 105.984 169.402 105.243 170.134C104.279 171.096 102.517 171.778 100.194 171.778C94.5765 171.778 91.6779 168.268 93.0948 161.636V161.643Z" fill="white"/>
<path d="M113.924 161.643L116.708 148.445H114.838C113.421 148.445 112.623 147.878 112.623 146.916C112.623 146.292 112.903 144.935 113.529 144.368C113.924 143.973 114.435 143.801 115.514 143.801H117.672L118.125 141.591C118.808 138.246 120.053 136.947 122.441 136.947C123.692 136.947 124.656 137.456 124.598 137.629L123.289 143.801H129.079C130.554 143.801 131.352 144.311 131.352 145.215C131.352 145.897 131.014 147.196 130.446 147.82C130.05 148.215 129.54 148.445 128.461 148.445H122.275L119.434 161.529C118.585 165.605 119.887 167.249 122.498 167.249C124.03 167.249 125.39 166.402 126.073 165.663C126.245 165.548 127.152 166.402 127.152 167.701C127.152 168.663 126.814 169.402 126.073 170.134C125.109 171.096 123.347 171.778 121.024 171.778C115.406 171.778 112.507 168.268 113.932 161.636L113.924 161.643Z" fill="white"/>
<path d="M132.597 164.758L136.567 146.234C136.963 144.253 137.703 143.571 139.12 143.571H139.746C141.336 143.571 142.645 144.138 142.184 146.234L138.264 164.816C137.639 167.651 138.149 168.727 140.703 168.892C140.818 168.892 140.645 171.555 137.128 171.555C132.985 171.555 131.676 168.95 132.589 164.758H132.597ZM138.387 135.418C138.387 133.437 139.804 131.736 142.019 131.736C144.234 131.736 145.313 133.093 145.313 134.679C145.313 136.66 143.839 138.303 141.623 138.303C139.408 138.303 138.387 137.004 138.387 135.418Z" fill="white"/>
<path d="M226.313 159.203L229.039 146.234C229.492 144.196 230.233 143.571 231.65 143.571H232.276C233.808 143.571 235.175 144.138 234.714 146.234L231.988 159.146C230.967 163.675 232.787 166.789 236.987 166.789C239.188 166.789 240.922 166.1 242.454 164.701C243.986 163.301 245.086 161.249 245.532 159.124L248.28 146.227C248.675 144.189 249.416 143.564 250.833 143.564H251.459C253.048 143.564 254.35 144.131 253.897 146.227L249.977 164.809C249.351 167.643 249.862 168.663 252.193 168.885C252.308 168.885 252.135 171.548 248.79 171.548C247.086 171.548 245.611 171.038 244.763 169.682C244.309 168.943 244.137 167.816 244.137 166.51C242.036 169.797 238.8 171.72 234.945 171.72C227.903 171.72 224.724 166.624 226.313 159.203Z" fill="white"/>
<path d="M259.572 161.643L262.355 148.445H260.485C259.068 148.445 258.27 147.878 258.27 146.916C258.27 146.292 258.551 144.935 259.176 144.368C259.572 143.973 260.083 143.801 261.161 143.801H263.319L263.772 141.591C264.456 138.246 265.7 136.947 268.088 136.947C269.34 136.947 270.303 137.456 270.246 137.629L268.937 143.801H274.727C276.201 143.801 277 144.311 277 145.215C277 145.897 276.662 147.196 276.093 147.82C275.698 148.215 275.187 148.445 274.108 148.445H267.923L265.081 161.529C264.233 165.605 265.535 167.249 268.146 167.249C269.678 167.249 271.037 166.402 271.72 165.663C271.893 165.548 272.799 166.402 272.799 167.701C272.799 168.663 272.461 169.402 271.72 170.134C270.757 171.096 268.994 171.778 266.671 171.778C261.054 171.778 258.155 168.268 259.579 161.636L259.572 161.643Z" fill="white"/>
</g>
<defs>
<clipPath id="clip0_707_1250">
<rect width="296" height="172" fill="white"/>
</clipPath>
</defs>
</svg>
